<svg width="54" height="53" viewBox="0 0 54 45" fill="none" xmlns="http://www.w3.org/2000/svg">
<g filter="url(#filter0_d)">
<path d="M43.7031 3.03906H41.9688C41.1719 3.03906 40.5156 3.21094 40 3.55469C39.4844 3.89844 39.0547 4.35937 38.7109 4.9375C38.3828 5.51563 38.1172 6.19531 37.9141 6.97656C37.7109 7.75781 37.5156 8.59375 37.3281 9.48438C37.1562 10.3594 36.9688 11.2656 36.7656 12.2031C36.5625 13.125 36.2891 14.0312 35.9453 14.9219C35.6016 15.7969 35.1641 16.6328 34.6328 17.4297C34.1016 18.2266 33.4297 18.9219 32.6172 19.5156C33.4453 20.1719 34.1484 20.9688 34.7266 21.9062C35.3203 22.8281 35.8281 23.8359 36.25 24.9297C36.6719 26.0234 37.0391 27.1719 37.3516 28.375C37.6641 29.5625 37.9609 30.75 38.2422 31.9375C38.5391 33.125 38.8359 34.2734 39.1328 35.3828C39.4453 36.4922 39.8125 37.5156 40.2344 38.4531C40.6719 39.375 41.1797 40.1719 41.7578 40.8438C42.3516 41.5312 43.0625 42.0312 43.8906 42.3438C44.6875 42.6562 45.5469 42.8594 46.4688 42.9531C47.3906 43.0625 48.4688 43.1172 49.7031 43.1172L49.7969 44.0781C49.5938 44.125 49.3594 44.1641 49.0938 44.1953C48.875 44.2266 48.6016 44.25 48.2734 44.2656C47.9453 44.2969 47.5703 44.3125 47.1484 44.3125C44.8984 44.3125 43.0234 44.0469 41.5234 43.5156C40.0391 42.9844 38.8203 42.2656 37.8672 41.3594C36.9297 40.4531 36.2109 39.4062 35.7109 38.2188C35.2266 37.0312 34.8516 35.7812 34.5859 34.4688C34.3359 33.1562 34.1406 31.8203 34 30.4609C33.875 29.0859 33.7031 27.7812 33.4844 26.5469C33.2812 25.2969 32.9766 24.1562 32.5703 23.125C32.1797 22.0781 31.5859 21.2109 30.7891 20.5234C30.1953 20.7578 29.5312 20.9609 28.7969 21.1328C28.0781 21.3047 27.2812 21.4141 26.4062 21.4609V28C26.4062 29.3125 26.3828 30.4609 26.3359 31.4453C26.3047 32.4141 26.2109 33.2812 26.0547 34.0469C25.9141 34.7969 25.6953 35.4766 25.3984 36.0859C25.1016 36.6797 24.7031 37.2656 24.2031 37.8438C23.3438 38.8281 22.1172 39.6328 20.5234 40.2578C18.9453 40.8828 17.0703 41.1953 14.8984 41.1953C13.5547 41.1953 12.2734 41.0078 11.0547 40.6328C9.83594 40.2578 8.76562 39.7344 7.84375 39.0625C6.92188 38.3906 6.1875 37.5859 5.64062 36.6484C5.09375 35.7109 4.82031 34.6719 4.82031 33.5312C4.82031 32.6875 4.96094 31.9297 5.24219 31.2578C5.50781 30.5859 5.85938 29.9922 6.29688 29.4766C6.71875 28.9453 7.19531 28.4922 7.72656 28.1172C8.25781 27.7422 8.77344 27.4297 9.27344 27.1797C9.75781 26.9297 10.2031 26.7344 10.6094 26.5938C11.0312 26.4531 11.3438 26.3594 11.5469 26.3125L12.0156 27.2734C11.6562 27.4609 11.25 27.7188 10.7969 28.0469C10.3594 28.3594 9.94531 28.7656 9.55469 29.2656C9.16406 29.75 8.83594 30.3438 8.57031 31.0469C8.30469 31.75 8.17188 32.5781 8.17188 33.5312C8.17188 34.5469 8.34375 35.4609 8.6875 36.2734C9.03125 37.0703 9.50781 37.75 10.1172 38.3125C10.7422 38.8594 11.4766 39.2812 12.3203 39.5781C13.1797 39.8594 14.1172 40 15.1328 40C16.2734 40 17.3125 39.8438 18.25 39.5312C19.2031 39.2188 20.0156 38.6953 20.6875 37.9609C21.3594 37.2266 21.8828 36.25 22.2578 35.0312C22.6328 33.8125 22.8203 32.2969 22.8203 30.4844V21.3203C22.3672 21.2266 21.9844 21.1094 21.6719 20.9688C21.375 20.8125 21.1328 20.6484 20.9453 20.4766C20.7734 20.2891 20.6484 20.1016 20.5703 19.9141C20.4922 19.7266 20.4531 19.5391 20.4531 19.3516C20.4531 19.1797 20.4922 19 20.5703 18.8125C20.6484 18.6094 20.7734 18.4219 20.9453 18.25C21.1328 18.0781 21.375 17.9141 21.6719 17.7578C21.9844 17.6016 22.3672 17.4766 22.8203 17.3828V15.4609C22.8203 14.2109 22.8438 13.0234 22.8906 11.8984C22.9531 10.7578 23.1016 9.65625 23.3359 8.59375C23.5703 7.51562 23.9297 6.47656 24.4141 5.47656C24.8984 4.46094 25.5625 3.45313 26.4062 2.45312C25.6094 2.95312 24.7891 3.29688 23.9453 3.48438C23.1016 3.67188 22.2422 3.76562 21.3672 3.76562C20.2891 3.76562 19.1875 3.69531 18.0625 3.55469C16.9531 3.39844 15.8203 3.32031 14.6641 3.32031C14.0078 3.32031 13.4375 3.40625 12.9531 3.57812C12.4688 3.75 12.0625 3.97656 11.7344 4.25781C11.4219 4.53906 11.1875 4.86719 11.0312 5.24219C10.8906 5.61719 10.8203 6.01562 10.8203 6.4375C10.8203 6.85938 10.9219 7.27344 11.125 7.67969C11.3281 8.08594 11.625 8.44531 12.0156 8.75781C12.4062 9.07031 12.8828 9.32812 13.4453 9.53125C14.0078 9.71875 14.6484 9.8125 15.3672 9.8125C16.0234 9.8125 16.6172 9.75 17.1484 9.625C17.6953 9.5 18.1562 9.35938 18.5312 9.20312C18.9688 9.03125 19.3594 8.82031 19.7031 8.57031L20.1719 9.57812C19.75 9.85938 19.2812 10.1016 18.7656 10.3047C18.3281 10.4766 17.8125 10.6406 17.2188 10.7969C16.6406 10.9375 16.0234 11.0078 15.3672 11.0078C14.4766 11.0078 13.6562 10.8828 12.9062 10.6328C12.1719 10.3672 11.5391 10.0156 11.0078 9.57812C10.4922 9.125 10.0938 8.59375 9.8125 7.98438C9.51562 7.35938 9.36719 6.6875 9.36719 5.96875C9.36719 5.125 9.52344 4.38281 9.83594 3.74219C10.1484 3.08594 10.5703 2.53125 11.1016 2.07812C11.6484 1.625 12.2812 1.28125 13 1.04688C13.7344 0.8125 14.5234 0.695312 15.3672 0.695312C16.2266 0.695312 17.0312 0.75 17.7812 0.859375C18.5312 0.953125 19.2422 1.0625 19.9141 1.1875C20.6016 1.29688 21.2578 1.40625 21.8828 1.51562C22.5234 1.60938 23.1562 1.65625 23.7812 1.65625C24.4062 1.65625 25.0312 1.58594 25.6562 1.44531C26.2812 1.30469 26.9375 1.05469 27.625 0.695312L28.5859 1.39844C28.2266 1.86719 27.9141 2.39062 27.6484 2.96875C27.3828 3.54688 27.1562 4.25 26.9688 5.07812C26.7812 5.90625 26.6406 6.89844 26.5469 8.05469C26.4531 9.21094 26.4062 10.5938 26.4062 12.2031V17.2891C28.125 17.4297 29.5859 17.7812 30.7891 18.3438C31.6016 17.7812 32.2109 17.1172 32.6172 16.3516C33.0391 15.5703 33.3438 14.7422 33.5312 13.8672C33.7344 12.9922 33.8672 12.0859 33.9297 11.1484C33.9922 10.2109 34.0703 9.29688 34.1641 8.40625C34.2578 7.51562 34.4141 6.67188 34.6328 5.875C34.8516 5.07812 35.2109 4.38281 35.7109 3.78906C36.2266 3.19531 36.9219 2.72656 37.7969 2.38281C38.6875 2.02344 39.8516 1.84375 41.2891 1.84375H43.7031V3.03906ZM26.4062 19.8906C27.2969 19.7969 28.1172 19.6172 28.8672 19.3516C28.1328 19.0703 27.3125 18.8828 26.4062 18.7891V19.8906ZM21.6719 19.3516C21.6719 19.5547 21.75 19.7188 21.9062 19.8438C22.0781 19.9531 22.3828 20.0312 22.8203 20.0781V18.7422C22.3359 18.7891 22.0234 18.8672 21.8828 18.9766C21.7422 19.0859 21.6719 19.2109 21.6719 19.3516Z" fill="#8F5128"/>
</g>
<defs>
<filter id="filter0_d" x="0.820312" y="0.695312" width="52.9766" height="51.6172" filterUnits="userSpaceOnUse" color-interpolation-filters="sRGB">
<feFlood flood-opacity="0" result="BackgroundImageFix"/>
<feColorMatrix in="SourceAlpha" type="matrix" values="0 0 0 0 0 0 0 0 0 0 0 0 0 0 0 0 0 0 127 0" result="hardAlpha"/>
<feOffset dy="4"/>
<feGaussianBlur stdDeviation="2"/>
<feComposite in2="hardAlpha" operator="out"/>
<feColorMatrix type="matrix" values="0 0 0 0 0 0 0 0 0 0 0 0 0 0 0 0 0 0 0.87 0"/>
<feBlend mode="normal" in2="BackgroundImageFix" result="effect1_dropShadow"/>
<feBlend mode="normal" in="SourceGraphic" in2="effect1_dropShadow" result="shape"/>
</filter>
</defs>
</svg>
