<svg width="266" height="54" viewBox="0 0 266 54" fill="none" xmlns="http://www.w3.org/2000/svg">
<g filter="url(#filter0_d)">
<path d="M43.7031 3.03906H41.9688C41.1719 3.03906 40.5156 3.21094 40 3.55469C39.4844 3.89844 39.0547 4.35937 38.7109 4.9375C38.3828 5.51563 38.1172 6.19531 37.9141 6.97656C37.7109 7.75781 37.5156 8.59375 37.3281 9.48438C37.1562 10.3594 36.9688 11.2656 36.7656 12.2031C36.5625 13.125 36.2891 14.0312 35.9453 14.9219C35.6016 15.7969 35.1641 16.6328 34.6328 17.4297C34.1016 18.2266 33.4297 18.9219 32.6172 19.5156C33.4453 20.1719 34.1484 20.9688 34.7266 21.9062C35.3203 22.8281 35.8281 23.8359 36.25 24.9297C36.6719 26.0234 37.0391 27.1719 37.3516 28.375C37.6641 29.5625 37.9609 30.75 38.2422 31.9375C38.5391 33.125 38.8359 34.2734 39.1328 35.3828C39.4453 36.4922 39.8125 37.5156 40.2344 38.4531C40.6719 39.375 41.1797 40.1719 41.7578 40.8438C42.3516 41.5312 43.0625 42.0312 43.8906 42.3438C44.6875 42.6562 45.5469 42.8594 46.4688 42.9531C47.3906 43.0625 48.4688 43.1172 49.7031 43.1172L49.7969 44.0781C49.5938 44.125 49.3594 44.1641 49.0938 44.1953C48.875 44.2266 48.6016 44.25 48.2734 44.2656C47.9453 44.2969 47.5703 44.3125 47.1484 44.3125C44.8984 44.3125 43.0234 44.0469 41.5234 43.5156C40.0391 42.9844 38.8203 42.2656 37.8672 41.3594C36.9297 40.4531 36.2109 39.4062 35.7109 38.2188C35.2266 37.0312 34.8516 35.7812 34.5859 34.4688C34.3359 33.1562 34.1406 31.8203 34 30.4609C33.875 29.0859 33.7031 27.7812 33.4844 26.5469C33.2812 25.2969 32.9766 24.1562 32.5703 23.125C32.1797 22.0781 31.5859 21.2109 30.7891 20.5234C30.1953 20.7578 29.5312 20.9609 28.7969 21.1328C28.0781 21.3047 27.2812 21.4141 26.4062 21.4609V28C26.4062 29.3125 26.3828 30.4609 26.3359 31.4453C26.3047 32.4141 26.2109 33.2812 26.0547 34.0469C25.9141 34.7969 25.6953 35.4766 25.3984 36.0859C25.1016 36.6797 24.7031 37.2656 24.2031 37.8438C23.3438 38.8281 22.1172 39.6328 20.5234 40.2578C18.9453 40.8828 17.0703 41.1953 14.8984 41.1953C13.5547 41.1953 12.2734 41.0078 11.0547 40.6328C9.83594 40.2578 8.76562 39.7344 7.84375 39.0625C6.92188 38.3906 6.1875 37.5859 5.64062 36.6484C5.09375 35.7109 4.82031 34.6719 4.82031 33.5312C4.82031 32.6875 4.96094 31.9297 5.24219 31.2578C5.50781 30.5859 5.85938 29.9922 6.29688 29.4766C6.71875 28.9453 7.19531 28.4922 7.72656 28.1172C8.25781 27.7422 8.77344 27.4297 9.27344 27.1797C9.75781 26.9297 10.2031 26.7344 10.6094 26.5938C11.0312 26.4531 11.3438 26.3594 11.5469 26.3125L12.0156 27.2734C11.6562 27.4609 11.25 27.7188 10.7969 28.0469C10.3594 28.3594 9.94531 28.7656 9.55469 29.2656C9.16406 29.75 8.83594 30.3438 8.57031 31.0469C8.30469 31.75 8.17188 32.5781 8.17188 33.5312C8.17188 34.5469 8.34375 35.4609 8.6875 36.2734C9.03125 37.0703 9.50781 37.75 10.1172 38.3125C10.7422 38.8594 11.4766 39.2812 12.3203 39.5781C13.1797 39.8594 14.1172 40 15.1328 40C16.2734 40 17.3125 39.8438 18.25 39.5312C19.2031 39.2188 20.0156 38.6953 20.6875 37.9609C21.3594 37.2266 21.8828 36.25 22.2578 35.0312C22.6328 33.8125 22.8203 32.2969 22.8203 30.4844V21.3203C22.3672 21.2266 21.9844 21.1094 21.6719 20.9688C21.375 20.8125 21.1328 20.6484 20.9453 20.4766C20.7734 20.2891 20.6484 20.1016 20.5703 19.9141C20.4922 19.7266 20.4531 19.5391 20.4531 19.3516C20.4531 19.1797 20.4922 19 20.5703 18.8125C20.6484 18.6094 20.7734 18.4219 20.9453 18.25C21.1328 18.0781 21.375 17.9141 21.6719 17.7578C21.9844 17.6016 22.3672 17.4766 22.8203 17.3828V15.4609C22.8203 14.2109 22.8438 13.0234 22.8906 11.8984C22.9531 10.7578 23.1016 9.65625 23.3359 8.59375C23.5703 7.51562 23.9297 6.47656 24.4141 5.47656C24.8984 4.46094 25.5625 3.45313 26.4062 2.45312C25.6094 2.95312 24.7891 3.29688 23.9453 3.48438C23.1016 3.67188 22.2422 3.76562 21.3672 3.76562C20.2891 3.76562 19.1875 3.69531 18.0625 3.55469C16.9531 3.39844 15.8203 3.32031 14.6641 3.32031C14.0078 3.32031 13.4375 3.40625 12.9531 3.57812C12.4688 3.75 12.0625 3.97656 11.7344 4.25781C11.4219 4.53906 11.1875 4.86719 11.0312 5.24219C10.8906 5.61719 10.8203 6.01562 10.8203 6.4375C10.8203 6.85938 10.9219 7.27344 11.125 7.67969C11.3281 8.08594 11.625 8.44531 12.0156 8.75781C12.4062 9.07031 12.8828 9.32812 13.4453 9.53125C14.0078 9.71875 14.6484 9.8125 15.3672 9.8125C16.0234 9.8125 16.6172 9.75 17.1484 9.625C17.6953 9.5 18.1562 9.35938 18.5312 9.20312C18.9688 9.03125 19.3594 8.82031 19.7031 8.57031L20.1719 9.57812C19.75 9.85938 19.2812 10.1016 18.7656 10.3047C18.3281 10.4766 17.8125 10.6406 17.2188 10.7969C16.6406 10.9375 16.0234 11.0078 15.3672 11.0078C14.4766 11.0078 13.6562 10.8828 12.9062 10.6328C12.1719 10.3672 11.5391 10.0156 11.0078 9.57812C10.4922 9.125 10.0938 8.59375 9.8125 7.98438C9.51562 7.35938 9.36719 6.6875 9.36719 5.96875C9.36719 5.125 9.52344 4.38281 9.83594 3.74219C10.1484 3.08594 10.5703 2.53125 11.1016 2.07812C11.6484 1.625 12.2812 1.28125 13 1.04688C13.7344 0.8125 14.5234 0.695312 15.3672 0.695312C16.2266 0.695312 17.0312 0.75 17.7812 0.859375C18.5312 0.953125 19.2422 1.0625 19.9141 1.1875C20.6016 1.29688 21.2578 1.40625 21.8828 1.51562C22.5234 1.60938 23.1562 1.65625 23.7812 1.65625C24.4062 1.65625 25.0312 1.58594 25.6562 1.44531C26.2812 1.30469 26.9375 1.05469 27.625 0.695312L28.5859 1.39844C28.2266 1.86719 27.9141 2.39062 27.6484 2.96875C27.3828 3.54688 27.1562 4.25 26.9688 5.07812C26.7812 5.90625 26.6406 6.89844 26.5469 8.05469C26.4531 9.21094 26.4062 10.5938 26.4062 12.2031V17.2891C28.125 17.4297 29.5859 17.7812 30.7891 18.3438C31.6016 17.7812 32.2109 17.1172 32.6172 16.3516C33.0391 15.5703 33.3438 14.7422 33.5312 13.8672C33.7344 12.9922 33.8672 12.0859 33.9297 11.1484C33.9922 10.2109 34.0703 9.29688 34.1641 8.40625C34.2578 7.51562 34.4141 6.67188 34.6328 5.875C34.8516 5.07812 35.2109 4.38281 35.7109 3.78906C36.2266 3.19531 36.9219 2.72656 37.7969 2.38281C38.6875 2.02344 39.8516 1.84375 41.2891 1.84375H43.7031V3.03906ZM26.4062 19.8906C27.2969 19.7969 28.1172 19.6172 28.8672 19.3516C28.1328 19.0703 27.3125 18.8828 26.4062 18.7891V19.8906ZM21.6719 19.3516C21.6719 19.5547 21.75 19.7188 21.9062 19.8438C22.0781 19.9531 22.3828 20.0312 22.8203 20.0781V18.7422C22.3359 18.7891 22.0234 18.8672 21.8828 18.9766C21.7422 19.0859 21.6719 19.2109 21.6719 19.3516ZM59.0312 13.3516C59.875 12.6328 60.5234 11.75 60.9766 10.7031C61.4453 9.64062 61.6797 8.44531 61.6797 7.11719C61.6797 6.39844 61.5859 5.71875 61.3984 5.07812C61.2266 4.4375 60.9609 3.88281 60.6016 3.41406C60.2578 2.92969 59.8281 2.54688 59.3125 2.26562C58.8125 1.98438 58.2422 1.84375 57.6016 1.84375C57.0547 1.84375 56.5312 1.96875 56.0312 2.21875C55.5469 2.45312 55.1172 2.8125 54.7422 3.29688C54.3672 3.76562 54.0625 4.36719 53.8281 5.10156C53.6094 5.82031 53.5 6.65625 53.5 7.60938C53.5 8.5625 53.5703 9.70312 53.7109 11.0312C53.8672 12.3438 54.0391 13.8125 54.2266 15.4375C54.4141 17.0469 54.5781 18.7891 54.7188 20.6641C54.875 22.5391 54.9531 24.5078 54.9531 26.5703C54.9531 27.6328 54.8594 28.6406 54.6719 29.5938C54.5 30.5312 54.25 31.4062 53.9219 32.2188C53.5938 33.0312 53.2031 33.7812 52.75 34.4688C52.3125 35.1562 51.8281 35.7812 51.2969 36.3438C52.1719 36.75 53.0312 37.1953 53.875 37.6797C54.7344 38.1641 55.5781 38.6562 56.4062 39.1562C57.2344 39.6406 58.0703 40.1094 58.9141 40.5625C59.7578 41.0312 60.6094 41.4375 61.4688 41.7812C62.3281 42.1406 63.2109 42.4297 64.1172 42.6484C65.0234 42.8672 65.9688 42.9766 66.9531 42.9766C68.8125 42.9766 70.25 42.7031 71.2656 42.1562L71.7578 42.7891C71.4297 43.0703 70.9766 43.3672 70.3984 43.6797C69.8359 44.0078 69.1953 44.3047 68.4766 44.5703C67.7734 44.8516 67.0234 45.0781 66.2266 45.25C65.4297 45.4375 64.6328 45.5312 63.8359 45.5312C62.1328 45.5312 60.5625 45.2891 59.125 44.8047C57.6875 44.3359 56.3594 43.75 55.1406 43.0469C53.9219 42.3438 52.7891 41.5859 51.7422 40.7734C50.6953 39.9609 49.7031 39.2109 48.7656 38.5234C47.8438 39.1016 46.9141 39.5312 45.9766 39.8125C45.0547 40.0938 44.2031 40.2344 43.4219 40.2344C42.7656 40.2344 42.2188 40.1562 41.7812 40C41.3281 39.8281 40.9688 39.6172 40.7031 39.3672C40.4219 39.1172 40.2266 38.8359 40.1172 38.5234C39.9922 38.2109 39.9297 37.9062 39.9297 37.6094C39.9297 37.25 40.0391 36.8984 40.2578 36.5547C40.4766 36.2109 40.7969 35.9062 41.2188 35.6406C41.625 35.3594 42.1172 35.1406 42.6953 34.9844C43.2734 34.8125 43.9219 34.7266 44.6406 34.7266C45.4375 34.7266 46.2031 34.7969 46.9375 34.9375C47.6875 35.0781 48.4219 35.2578 49.1406 35.4766C49.7188 34.5703 50.1875 33.4531 50.5469 32.125C50.9219 30.7812 51.1094 29.1641 51.1094 27.2734C51.1094 25.2109 51.0312 23.3359 50.875 21.6484C50.7344 19.9453 50.5703 18.3516 50.3828 16.8672C50.2109 15.3672 50.0469 13.9297 49.8906 12.5547C49.75 11.1641 49.6797 9.75 49.6797 8.3125C49.6797 7.04688 49.9062 5.9375 50.3594 4.98438C50.8281 4.01563 51.4219 3.21094 52.1406 2.57031C52.875 1.92969 53.6953 1.45312 54.6016 1.14062C55.5234 0.8125 56.4375 0.648438 57.3438 0.648438C58.3594 0.648438 59.2891 0.804688 60.1328 1.11719C60.9922 1.42969 61.7266 1.85938 62.3359 2.40625C62.9609 2.9375 63.4453 3.57031 63.7891 4.30469C64.1328 5.02344 64.3047 5.80469 64.3047 6.64844C64.3047 7.55469 64.1562 8.40625 63.8594 9.20312C63.5625 9.98438 63.1875 10.7031 62.7344 11.3594C62.2969 12 61.8125 12.5703 61.2812 13.0703C60.75 13.5703 60.2422 13.9844 59.7578 14.3125L59.0312 13.3516ZM43.4219 39.0391C44.0156 39.0391 44.6562 38.9297 45.3438 38.7109C46.0312 38.4766 46.7031 38.0938 47.3594 37.5625C46.7031 37.1562 46.0703 36.8203 45.4609 36.5547C44.8672 36.2891 44.2734 36.1562 43.6797 36.1562C42.9922 36.1562 42.4219 36.2812 41.9688 36.5312C41.5 36.7656 41.2656 37.125 41.2656 37.6094C41.2656 38.0938 41.4609 38.4531 41.8516 38.6875C42.2422 38.9219 42.7656 39.0391 43.4219 39.0391ZM66.6719 0.648438C67.4219 0.648438 68.1484 1.00781 68.8516 1.72656C69.5703 2.42969 70.25 3.39062 70.8906 4.60938C71.5312 5.8125 72.125 7.21875 72.6719 8.82812C73.2188 10.4219 73.7188 12.1094 74.1719 13.8906C75.2812 15.3281 76.4609 16.8359 77.7109 18.4141C78.9609 19.9922 80.25 21.5938 81.5781 23.2188C82.9219 24.8438 84.2812 26.4766 85.6562 28.1172C87.0469 29.7422 88.4297 31.3359 89.8047 32.8984C88.8203 28.5703 88.0781 24.6797 87.5781 21.2266C87.0781 17.7734 86.8281 14.7344 86.8281 12.1094C86.8281 10.2188 87.0078 8.5625 87.3672 7.14062C87.7422 5.70313 88.2422 4.50781 88.8672 3.55469C89.4922 2.58594 90.2266 1.85938 91.0703 1.375C91.9141 0.890625 92.8203 0.648438 93.7891 0.648438C94.5078 0.648438 95.1328 0.773437 95.6641 1.02344C96.2109 1.27344 96.6641 1.60938 97.0234 2.03125C97.3984 2.45312 97.6719 2.9375 97.8438 3.48438C98.0312 4.03125 98.125 4.60156 98.125 5.19531C98.125 5.99219 98.0391 6.73438 97.8672 7.42188C97.7109 8.10938 97.5391 8.71094 97.3516 9.22656C97.1172 9.83594 96.8594 10.3984 96.5781 10.9141L95.6641 10.3281C95.7266 10.1875 95.8125 9.98438 95.9219 9.71875C96.0469 9.4375 96.1641 9.10156 96.2734 8.71094C96.3828 8.30469 96.4766 7.85156 96.5547 7.35156C96.6328 6.83594 96.6719 6.28125 96.6719 5.6875C96.6719 4.71875 96.4531 3.96094 96.0156 3.41406C95.5781 2.85156 95 2.57031 94.2812 2.57031C93.3438 2.57031 92.5469 2.89063 91.8906 3.53125C91.25 4.15625 90.7266 5.03125 90.3203 6.15625C89.9297 7.26562 89.6406 8.57812 89.4531 10.0938C89.2812 11.5938 89.1953 13.2109 89.1953 14.9453C89.1953 16.5703 89.2656 18.2656 89.4062 20.0312C89.5469 21.7812 89.7344 23.5391 89.9688 25.3047C90.2188 27.0547 90.5 28.7734 90.8125 30.4609C91.1406 32.1484 91.4922 33.7266 91.8672 35.1953L95.2422 38.8047L92.4062 41.4766C91.4844 40.5859 90.3594 39.4531 89.0312 38.0781C87.7188 36.7031 86.2969 35.1484 84.7656 33.4141C83.2344 31.6797 81.6328 29.8047 79.9609 27.7891C78.3047 25.7734 76.6719 23.6875 75.0625 21.5312C75.2188 22.4219 75.3203 23.3672 75.3672 24.3672C75.4297 25.3516 75.4609 26.4375 75.4609 27.625C75.4609 29.7969 75.2031 31.6641 74.6875 33.2266C74.1719 34.7734 73.5 36.0547 72.6719 37.0703C71.8594 38.0703 70.9453 38.8125 69.9297 39.2969C68.9297 39.7656 67.9375 40 66.9531 40C66.1875 40 65.4531 39.8672 64.75 39.6016C64.0625 39.3359 63.4531 38.9453 62.9219 38.4297C62.4062 37.9141 61.9922 37.2891 61.6797 36.5547C61.3672 35.8047 61.2109 34.9531 61.2109 34C61.2109 32.5469 61.5625 31.1406 62.2656 29.7812C62.9688 28.4219 63.8594 27.1406 64.9375 25.9375L65.8516 26.4062C65.5391 26.875 65.2422 27.375 64.9609 27.9062C64.6953 28.4375 64.4531 28.9844 64.2344 29.5469C64.0312 30.0938 63.8672 30.6562 63.7422 31.2344C63.6172 31.8125 63.5547 32.3828 63.5547 32.9453C63.5547 33.6641 63.6641 34.3203 63.8828 34.9141C64.1172 35.4922 64.4219 35.9922 64.7969 36.4141C65.1719 36.8203 65.6094 37.1406 66.1094 37.375C66.625 37.5938 67.1641 37.7031 67.7266 37.7031C68.4609 37.7031 69.2031 37.4922 69.9531 37.0703C70.7188 36.6328 71.4062 35.9453 72.0156 35.0078C72.6406 34.0547 73.1484 32.8281 73.5391 31.3281C73.9297 29.8125 74.125 27.9844 74.125 25.8438C74.125 24.6094 74.0469 23.4141 73.8906 22.2578C73.75 21.0859 73.5391 19.9922 73.2578 18.9766C71.5547 16.5547 70.1484 14.4609 69.0391 12.6953C67.9453 10.9297 67.0781 9.42188 66.4375 8.17188C65.8125 6.90625 65.375 5.86719 65.125 5.05469C64.875 4.24219 64.75 3.57031 64.75 3.03906C64.75 2.19531 64.9453 1.58594 65.3359 1.21094C65.7422 0.835938 66.1875 0.648438 66.6719 0.648438ZM66.2031 2.3125C66.2031 2.46875 66.3359 2.79688 66.6016 3.29688C66.8828 3.78125 67.2734 4.40625 67.7734 5.17188C68.2891 5.92188 68.9062 6.79688 69.625 7.79688C70.3438 8.79688 71.1484 9.88281 72.0391 11.0547C71.6484 9.82031 71.2188 8.64844 70.75 7.53906C70.2969 6.41406 69.8359 5.42969 69.3672 4.58594C68.8984 3.74219 68.4297 3.07813 67.9609 2.59375C67.4922 2.09375 67.0625 1.84375 66.6719 1.84375C66.3594 1.84375 66.2031 2 66.2031 2.3125ZM121.797 0.648438C124.891 0.648438 127.688 1.14844 130.188 2.14844C132.703 3.13281 134.852 4.50781 136.633 6.27344C138.414 8.03906 139.789 10.1406 140.758 12.5781C141.727 15.0156 142.211 17.6797 142.211 20.5703C142.211 22.4297 142.031 24.2266 141.672 25.9609C141.312 27.6953 140.797 29.3281 140.125 30.8594C139.453 32.3906 138.625 33.7891 137.641 35.0547C136.672 36.3203 135.57 37.4141 134.336 38.3359C133.117 39.2422 131.773 39.9453 130.305 40.4453C128.852 40.9453 127.297 41.1953 125.641 41.1953C123.953 41.1953 122.25 41.0391 120.531 40.7266C118.812 40.4141 117.109 40.0781 115.422 39.7188C114.844 40.0469 114.25 40.3281 113.641 40.5625C113.031 40.8125 112.422 41.0156 111.812 41.1719C111.203 41.3438 110.602 41.4688 110.008 41.5469C109.43 41.6406 108.883 41.6875 108.367 41.6875C106.805 41.6875 105.617 41.5078 104.805 41.1484C103.977 40.7891 103.562 40.25 103.562 39.5312C103.562 39.1094 103.68 38.7344 103.914 38.4062C104.133 38.0781 104.508 37.8047 105.039 37.5859C105.57 37.3516 106.266 37.1797 107.125 37.0703C107.969 36.9453 109.023 36.8828 110.289 36.8828C111.273 36.8828 112.242 36.9375 113.195 37.0469C114.148 37.1406 115.094 37.2578 116.031 37.3984L116.664 36.7422C116.992 36.3516 117.242 35.8594 117.414 35.2656C117.586 34.6562 117.711 33.875 117.789 32.9219C117.867 31.9688 117.914 30.8047 117.93 29.4297C117.945 28.0391 117.953 26.3594 117.953 24.3906C117.953 22.4844 117.961 20.8594 117.977 19.5156C118.008 18.1562 118.07 16.9922 118.164 16.0234C118.258 15.0547 118.398 14.2344 118.586 13.5625C118.773 12.875 119.023 12.25 119.336 11.6875C119.664 11.1094 120.07 10.5469 120.555 10C121.039 9.4375 121.617 8.79688 122.289 8.07812L123.484 9.13281C123.141 9.46094 122.867 9.86719 122.664 10.3516C122.477 10.8203 122.336 11.3828 122.242 12.0391C122.148 12.6797 122.086 13.4141 122.055 14.2422C122.039 15.0547 122.031 15.9766 122.031 17.0078V30.2031C122.031 31.2188 121.922 32.1094 121.703 32.875C121.484 33.625 121.188 34.2969 120.812 34.8906C120.453 35.4844 120.039 36.0156 119.57 36.4844C119.102 36.9531 118.617 37.3906 118.117 37.7969C119.039 37.9844 119.938 38.1719 120.812 38.3594C121.688 38.5469 122.531 38.7188 123.344 38.875C124.172 39.0312 124.961 39.1641 125.711 39.2734C126.477 39.3672 127.203 39.4141 127.891 39.4141C129.172 39.4141 130.312 39.1328 131.312 38.5703C132.312 38.0078 133.18 37.2422 133.914 36.2734C134.648 35.2891 135.266 34.1406 135.766 32.8281C136.281 31.5 136.695 30.0781 137.008 28.5625C137.32 27.0469 137.539 25.4609 137.664 23.8047C137.805 22.1484 137.875 20.5078 137.875 18.8828C137.875 16.3047 137.547 13.9922 136.891 11.9453C136.234 9.89844 135.258 8.16406 133.961 6.74219C132.68 5.30469 131.078 4.21094 129.156 3.46094C127.25 2.69531 125.039 2.3125 122.523 2.3125C120.711 2.3125 119.133 2.46094 117.789 2.75781C116.445 3.03906 115.289 3.42187 114.32 3.90625C113.367 4.375 112.586 4.91406 111.977 5.52344C111.367 6.13281 110.883 6.76562 110.523 7.42188C110.18 8.0625 109.938 8.70312 109.797 9.34375C109.672 9.98438 109.609 10.5703 109.609 11.1016C109.609 11.7266 109.656 12.3438 109.75 12.9531C109.859 13.5469 110.062 14.0781 110.359 14.5469C110.672 15.0156 111.109 15.3906 111.672 15.6719C112.234 15.9531 112.984 16.0938 113.922 16.0938C114.234 16.0938 114.492 16.0781 114.695 16.0469C114.898 16 115.07 15.9453 115.211 15.8828C115.367 15.8203 115.5 15.75 115.609 15.6719L115.891 17.0547C115.656 17.2266 115.258 17.375 114.695 17.5C114.148 17.625 113.555 17.6875 112.914 17.6875C111.977 17.6875 111.102 17.5234 110.289 17.1953C109.492 16.8672 108.797 16.4219 108.203 15.8594C107.609 15.2812 107.148 14.6172 106.82 13.8672C106.477 13.1172 106.305 12.3203 106.305 11.4766C106.305 10.0234 106.688 8.64844 107.453 7.35156C108.219 6.03906 109.289 4.89062 110.664 3.90625C112.039 2.90625 113.672 2.11719 115.562 1.53906C117.469 0.945313 119.547 0.648438 121.797 0.648438ZM107.406 38.5703C107.156 38.5703 106.891 38.5781 106.609 38.5938C106.328 38.6094 106.07 38.6484 105.836 38.7109C105.586 38.7734 105.383 38.8672 105.227 38.9922C105.07 39.1172 104.992 39.2969 104.992 39.5312C104.992 39.8438 105.25 40.0781 105.766 40.2344C106.281 40.3906 107.148 40.4688 108.367 40.4688C109.305 40.4688 110.195 40.3672 111.039 40.1641C111.898 39.9609 112.703 39.6641 113.453 39.2734C112.422 39.0859 111.398 38.9219 110.383 38.7812C109.367 38.6406 108.375 38.5703 107.406 38.5703ZM152.055 37.3516C152.602 37.3516 153.156 37.2109 153.719 36.9297C154.297 36.6484 154.875 36.2109 155.453 35.6172C156.047 35.0234 156.656 34.2578 157.281 33.3203C157.906 32.3672 158.547 31.2344 159.203 29.9219L159.438 29.4297L160.398 30.1562L160.164 30.6484C159.32 32.3203 158.477 33.75 157.633 34.9375C156.805 36.125 155.984 37.0938 155.172 37.8438C154.375 38.5938 153.586 39.1406 152.805 39.4844C152.023 39.8281 151.273 40 150.555 40C149.539 40 148.633 39.7891 147.836 39.3672C147.039 38.9453 146.367 38.375 145.82 37.6562C145.273 36.9219 144.859 36.0781 144.578 35.125C144.281 34.1562 144.133 33.1406 144.133 32.0781C144.133 30.3906 144.367 28.8594 144.836 27.4844C145.289 26.0938 145.898 24.9062 146.664 23.9219C147.445 22.9375 148.328 22.1719 149.312 21.625C150.297 21.0781 151.32 20.8047 152.383 20.8047C153.461 20.8047 154.281 21.0781 154.844 21.625C155.422 22.1719 155.711 22.8594 155.711 23.6875C155.711 24.4844 155.484 25.2344 155.031 25.9375C154.578 26.625 153.961 27.3047 153.18 27.9766C152.414 28.6328 151.523 29.2891 150.508 29.9453C149.492 30.5859 148.422 31.25 147.297 31.9375C147.406 32.75 147.594 33.4922 147.859 34.1641C148.125 34.8203 148.461 35.3906 148.867 35.875C149.273 36.3438 149.742 36.7109 150.273 36.9766C150.805 37.2266 151.398 37.3516 152.055 37.3516ZM152.781 24.3906C152.781 23.7656 152.609 23.2734 152.266 22.9141C151.938 22.5547 151.531 22.375 151.047 22.375C150.641 22.375 150.211 22.5234 149.758 22.8203C149.305 23.1016 148.891 23.5625 148.516 24.2031C148.141 24.8281 147.828 25.6328 147.578 26.6172C147.328 27.6016 147.203 28.7969 147.203 30.2031V30.7422C147.734 30.4609 148.32 30.0938 148.961 29.6406C149.617 29.1719 150.227 28.6562 150.789 28.0938C151.352 27.5312 151.82 26.9375 152.195 26.3125C152.586 25.6719 152.781 25.0312 152.781 24.3906ZM162.508 27.5312C162.523 29.3281 162.641 30.9297 162.859 32.3359C163.078 33.7266 163.383 34.9062 163.773 35.875C164.164 36.8281 164.641 37.5547 165.203 38.0547C165.766 38.5547 166.406 38.8047 167.125 38.8047C168.109 38.8047 168.922 38.4141 169.562 37.6328C170.219 36.8359 170.703 35.75 171.016 34.375C170.203 34.2031 169.43 33.8828 168.695 33.4141C167.961 32.9453 167.312 32.3672 166.75 31.6797C166.188 30.9766 165.734 30.1719 165.391 29.2656C165.062 28.3594 164.898 27.375 164.898 26.3125C164.898 25.4375 165.008 24.6719 165.227 24.0156C165.461 23.3438 165.766 22.7891 166.141 22.3516C166.516 21.8984 166.945 21.5625 167.43 21.3438C167.93 21.1094 168.453 20.9922 169 20.9922C169.641 20.9922 170.297 21.1797 170.969 21.5547C171.641 21.9141 172.25 22.4609 172.797 23.1953C173.344 23.9141 173.789 24.8203 174.133 25.9141C174.477 27.0078 174.648 28.2812 174.648 29.7344C174.648 30.2812 174.617 30.8203 174.555 31.3516C174.492 31.8828 174.398 32.3984 174.273 32.8984C175.023 32.6797 175.703 32.3281 176.312 31.8438C176.938 31.3594 177.453 30.7188 177.859 29.9219L178.117 29.4297L179.078 30.1562L178.82 30.6484C178.289 31.7109 177.578 32.5625 176.688 33.2031C175.812 33.8281 174.859 34.2344 173.828 34.4219C173.547 35.2188 173.18 35.9609 172.727 36.6484C172.289 37.3203 171.781 37.9062 171.203 38.4062C170.641 38.9062 170 39.2969 169.281 39.5781C168.578 39.8594 167.812 40 166.984 40C165.812 40 164.734 39.75 163.75 39.25C162.781 38.75 161.938 37.9375 161.219 36.8125C160.516 35.6875 159.961 34.2109 159.555 32.3828C159.164 30.5391 158.969 28.2812 158.969 25.6094C158.969 21.8906 159.141 18.7266 159.484 16.1172C159.828 13.4922 160.281 11.3594 160.844 9.71875C161.406 8.0625 162.055 6.85938 162.789 6.10938C163.523 5.34375 164.281 4.96094 165.062 4.96094C165.547 4.96094 165.945 5.15625 166.258 5.54688C166.57 5.92188 166.727 6.60938 166.727 7.60938C166.727 8.39062 166.664 9.28125 166.539 10.2812C166.414 11.2812 166.25 12.3516 166.047 13.4922C165.844 14.6328 165.602 15.8203 165.32 17.0547C165.039 18.2734 164.742 19.4922 164.43 20.7109C164.117 21.9141 163.797 23.1016 163.469 24.2734C163.141 25.4297 162.82 26.5156 162.508 27.5312ZM166.445 26.125C166.445 27.0469 166.57 27.8984 166.82 28.6797C167.086 29.4453 167.438 30.125 167.875 30.7188C168.312 31.2969 168.82 31.7812 169.398 32.1719C169.977 32.5625 170.594 32.8359 171.25 32.9922C171.328 32.5547 171.375 32.1016 171.391 31.6328C171.422 31.1484 171.438 30.6562 171.438 30.1562C171.438 29.0469 171.352 28.0469 171.18 27.1562C171.008 26.25 170.781 25.4844 170.5 24.8594C170.219 24.2188 169.891 23.7266 169.516 23.3828C169.141 23.0391 168.758 22.8672 168.367 22.8672C167.836 22.8672 167.383 23.1562 167.008 23.7344C166.633 24.2969 166.445 25.0938 166.445 26.125ZM165.203 8.17188C165.203 7.84375 165.164 7.58594 165.086 7.39844C165.008 7.21094 164.883 7.11719 164.711 7.11719C164.539 7.11719 164.367 7.35938 164.195 7.84375C164.023 8.32812 163.852 8.98438 163.68 9.8125C163.523 10.6406 163.375 11.6016 163.234 12.6953C163.109 13.7891 162.992 14.9531 162.883 16.1875C162.773 17.4062 162.688 18.6562 162.625 19.9375C162.562 21.2188 162.523 22.4531 162.508 23.6406C162.883 22.2656 163.234 20.8594 163.562 19.4219C163.891 17.9688 164.172 16.5625 164.406 15.2031C164.656 13.8438 164.852 12.5625 164.992 11.3594C165.133 10.1406 165.203 9.07812 165.203 8.17188ZM192.344 34.1875C192.344 35.0781 192.422 35.8281 192.578 36.4375C192.734 37.0469 193.008 37.3516 193.398 37.3516C193.633 37.3516 193.883 37.2422 194.148 37.0234C194.43 36.7891 194.75 36.4141 195.109 35.8984C195.469 35.3828 195.875 34.7188 196.328 33.9062C196.797 33.0781 197.328 32.0703 197.922 30.8828L198.625 29.4297L199.586 30.1562L198.883 31.6094C198.227 32.9219 197.609 34.1016 197.031 35.1484C196.469 36.1797 195.93 37.0547 195.414 37.7734C194.898 38.4922 194.391 39.0469 193.891 39.4375C193.406 39.8125 192.922 40 192.438 40C191.922 40 191.484 39.8594 191.125 39.5781C190.781 39.2969 190.492 38.9141 190.258 38.4297C190.023 37.9297 189.844 37.3594 189.719 36.7188C189.594 36.0625 189.508 35.3672 189.461 34.6328C189.086 35.3828 188.672 36.0859 188.219 36.7422C187.766 37.3828 187.289 37.9453 186.789 38.4297C186.305 38.9141 185.797 39.2969 185.266 39.5781C184.734 39.8594 184.203 40 183.672 40C182.891 40 182.133 39.8359 181.398 39.5078C180.664 39.1797 180.008 38.6797 179.43 38.0078C178.867 37.3359 178.414 36.4922 178.07 35.4766C177.727 34.4453 177.555 33.2344 177.555 31.8438C177.555 30.2188 177.766 28.7344 178.188 27.3906C178.609 26.0312 179.18 24.8672 179.898 23.8984C180.617 22.9141 181.445 22.1562 182.383 21.625C183.32 21.0781 184.305 20.8047 185.336 20.8047C185.961 20.8047 186.539 20.9453 187.07 21.2266C187.602 21.5078 188.062 21.8516 188.453 22.2578C188.859 22.6484 189.195 23.0703 189.461 23.5234C189.727 23.9609 189.906 24.3359 190 24.6484L190.281 22.375C190.312 22.0781 190.453 21.8281 190.703 21.625C190.969 21.4219 191.258 21.2656 191.57 21.1562C191.883 21.0312 192.188 20.9453 192.484 20.8984C192.781 20.8359 192.992 20.8047 193.117 20.8047C193.305 20.8047 193.43 20.8359 193.492 20.8984C193.555 20.9609 193.586 21.0859 193.586 21.2734C193.586 21.5078 193.516 21.9844 193.375 22.7031C193.25 23.4062 193.109 24.3125 192.953 25.4219C192.812 26.5156 192.672 27.8047 192.531 29.2891C192.406 30.7734 192.344 32.4062 192.344 34.1875ZM189.766 28C189.766 27.2812 189.656 26.5781 189.438 25.8906C189.219 25.1875 188.922 24.5703 188.547 24.0391C188.172 23.4922 187.734 23.0547 187.234 22.7266C186.75 22.3984 186.234 22.2344 185.688 22.2344C185.016 22.2344 184.383 22.4297 183.789 22.8203C183.211 23.1953 182.703 23.7344 182.266 24.4375C181.844 25.125 181.508 25.9609 181.258 26.9453C181.008 27.9141 180.883 28.9844 180.883 30.1562C180.883 32.5 181.25 34.2891 181.984 35.5234C182.719 36.7422 183.695 37.3516 184.914 37.3516C185.445 37.3516 185.992 37.1406 186.555 36.7188C187.133 36.2812 187.656 35.6641 188.125 34.8672C188.609 34.0547 189 33.0703 189.297 31.9141C189.609 30.7578 189.766 29.4531 189.766 28ZM198.391 29.9219L198.625 29.4297C198.859 28.9609 199.07 28.4766 199.258 27.9766C199.461 27.4766 199.633 27.0078 199.773 26.5703C199.914 26.1172 200.023 25.7188 200.102 25.375C200.18 25.0156 200.234 24.7422 200.266 24.5547C199.859 24.5078 199.469 24.4062 199.094 24.25C198.719 24.0938 198.391 23.8828 198.109 23.6172C197.828 23.3516 197.609 23.0391 197.453 22.6797C197.281 22.3203 197.195 21.9141 197.195 21.4609C197.195 21.1016 197.258 20.7812 197.383 20.5C197.508 20.2188 197.68 19.9844 197.898 19.7969C198.102 19.6094 198.336 19.4688 198.602 19.375C198.852 19.2656 199.117 19.2109 199.398 19.2109C199.773 19.2109 200.102 19.2891 200.383 19.4453C200.664 19.6016 200.898 19.8125 201.086 20.0781C201.273 20.3281 201.414 20.625 201.508 20.9688C201.602 21.2969 201.648 21.6406 201.648 22C202.086 22 202.555 21.9375 203.055 21.8125C203.57 21.6875 204.086 21.5547 204.602 21.4141C205.117 21.2578 205.625 21.1172 206.125 20.9922C206.625 20.8672 207.086 20.8047 207.508 20.8047C207.867 20.8047 208.156 20.8828 208.375 21.0391C208.594 21.1797 208.703 21.4219 208.703 21.7656C208.703 22.0156 208.625 22.4297 208.469 23.0078C208.328 23.5859 208.148 24.2578 207.93 25.0234C207.711 25.7891 207.469 26.625 207.203 27.5312C206.953 28.4219 206.719 29.3281 206.5 30.25C206.281 31.1562 206.094 32.0391 205.938 32.8984C205.797 33.7578 205.727 34.5234 205.727 35.1953C205.727 36.0391 205.82 36.6094 206.008 36.9062C206.195 37.2031 206.531 37.3516 207.016 37.3516C207.219 37.3516 207.469 37.2656 207.766 37.0938C208.078 36.9062 208.453 36.5547 208.891 36.0391C209.328 35.5078 209.844 34.7578 210.438 33.7891C211.047 32.8047 211.75 31.5156 212.547 29.9219L212.781 29.4297L213.742 30.1562L213.508 30.6484C212.57 32.5234 211.734 34.0625 211 35.2656C210.266 36.4688 209.586 37.4219 208.961 38.125C208.352 38.8281 207.773 39.3203 207.227 39.6016C206.68 39.8672 206.133 40 205.586 40C204.664 40 203.914 39.6484 203.336 38.9453C202.758 38.2422 202.469 37.1562 202.469 35.6875C202.469 34.8906 202.578 34.0625 202.797 33.2031C203.016 32.3438 203.289 31.4922 203.617 30.6484C203.945 29.7891 204.312 28.9453 204.719 28.1172C205.125 27.2891 205.508 26.5078 205.867 25.7734C206.242 25.0234 206.578 24.3281 206.875 23.6875C207.172 23.0469 207.383 22.4844 207.508 22L207.367 21.8594C207.117 21.8594 206.781 21.9922 206.359 22.2578C205.938 22.5234 205.461 22.8281 204.93 23.1719C204.414 23.5 203.859 23.8125 203.266 24.1094C202.672 24.4062 202.07 24.5859 201.461 24.6484C201.43 24.8672 201.359 25.1875 201.25 25.6094C201.156 26.0312 201.023 26.5 200.852 27.0156C200.68 27.5312 200.484 28.0625 200.266 28.6094C200.047 29.1562 199.82 29.6719 199.586 30.1562L199.352 30.6484L198.391 29.9219ZM199.539 20.5234C199.398 20.5234 199.281 20.5703 199.188 20.6641C199.094 20.7578 199.047 20.8672 199.047 20.9922C199.047 21.1797 199.094 21.3438 199.188 21.4844C199.281 21.6094 199.398 21.7188 199.539 21.8125C199.68 21.8906 199.82 21.9531 199.961 22C200.117 22.0312 200.25 22.0469 200.359 22.0469C200.359 21.6094 200.289 21.25 200.148 20.9688C200.008 20.6719 199.805 20.5234 199.539 20.5234ZM212.547 29.9219L212.781 29.4297C213.016 28.9609 213.227 28.4766 213.414 27.9766C213.617 27.4766 213.789 27.0078 213.93 26.5703C214.07 26.1172 214.18 25.7188 214.258 25.375C214.336 25.0156 214.391 24.7422 214.422 24.5547C214.016 24.5078 213.625 24.4062 213.25 24.25C212.875 24.0938 212.547 23.8828 212.266 23.6172C211.984 23.3516 211.766 23.0391 211.609 22.6797C211.438 22.3203 211.352 21.9141 211.352 21.4609C211.352 21.1016 211.414 20.7812 211.539 20.5C211.664 20.2188 211.836 19.9844 212.055 19.7969C212.258 19.6094 212.492 19.4688 212.758 19.375C213.008 19.2656 213.273 19.2109 213.555 19.2109C213.93 19.2109 214.258 19.2891 214.539 19.4453C214.82 19.6016 215.055 19.8125 215.242 20.0781C215.43 20.3281 215.57 20.625 215.664 20.9688C215.758 21.2969 215.805 21.6406 215.805 22C216.242 22 216.711 21.9375 217.211 21.8125C217.727 21.6875 218.242 21.5547 218.758 21.4141C219.273 21.2578 219.781 21.1172 220.281 20.9922C220.781 20.8672 221.242 20.8047 221.664 20.8047C222.023 20.8047 222.312 20.8828 222.531 21.0391C222.75 21.1797 222.859 21.4219 222.859 21.7656C222.859 22.0156 222.781 22.4297 222.625 23.0078C222.484 23.5859 222.305 24.2578 222.086 25.0234C221.867 25.7891 221.625 26.625 221.359 27.5312C221.109 28.4219 220.875 29.3281 220.656 30.25C220.438 31.1562 220.25 32.0391 220.094 32.8984C219.953 33.7578 219.883 34.5234 219.883 35.1953C219.883 36.0391 219.977 36.6094 220.164 36.9062C220.352 37.2031 220.688 37.3516 221.172 37.3516C221.375 37.3516 221.625 37.2656 221.922 37.0938C222.234 36.9062 222.609 36.5547 223.047 36.0391C223.484 35.5078 224 34.7578 224.594 33.7891C225.203 32.8047 225.906 31.5156 226.703 29.9219L226.938 29.4297L227.898 30.1562L227.664 30.6484C226.727 32.5234 225.891 34.0625 225.156 35.2656C224.422 36.4688 223.742 37.4219 223.117 38.125C222.508 38.8281 221.93 39.3203 221.383 39.6016C220.836 39.8672 220.289 40 219.742 40C218.82 40 218.07 39.6484 217.492 38.9453C216.914 38.2422 216.625 37.1562 216.625 35.6875C216.625 34.8906 216.734 34.0625 216.953 33.2031C217.172 32.3438 217.445 31.4922 217.773 30.6484C218.102 29.7891 218.469 28.9453 218.875 28.1172C219.281 27.2891 219.664 26.5078 220.023 25.7734C220.398 25.0234 220.734 24.3281 221.031 23.6875C221.328 23.0469 221.539 22.4844 221.664 22L221.523 21.8594C221.273 21.8594 220.938 21.9922 220.516 22.2578C220.094 22.5234 219.617 22.8281 219.086 23.1719C218.57 23.5 218.016 23.8125 217.422 24.1094C216.828 24.4062 216.227 24.5859 215.617 24.6484C215.586 24.8672 215.516 25.1875 215.406 25.6094C215.312 26.0312 215.18 26.5 215.008 27.0156C214.836 27.5312 214.641 28.0625 214.422 28.6094C214.203 29.1562 213.977 29.6719 213.742 30.1562L213.508 30.6484L212.547 29.9219ZM213.695 20.5234C213.555 20.5234 213.438 20.5703 213.344 20.6641C213.25 20.7578 213.203 20.8672 213.203 20.9922C213.203 21.1797 213.25 21.3438 213.344 21.4844C213.438 21.6094 213.555 21.7188 213.695 21.8125C213.836 21.8906 213.977 21.9531 214.117 22C214.273 22.0312 214.406 22.0469 214.516 22.0469C214.516 21.6094 214.445 21.25 214.305 20.9688C214.164 20.6719 213.961 20.5234 213.695 20.5234ZM241.141 34.1875C241.141 35.0781 241.219 35.8281 241.375 36.4375C241.531 37.0469 241.805 37.3516 242.195 37.3516C242.43 37.3516 242.68 37.2422 242.945 37.0234C243.227 36.7891 243.547 36.4141 243.906 35.8984C244.266 35.3828 244.672 34.7188 245.125 33.9062C245.594 33.0781 246.125 32.0703 246.719 30.8828L247.422 29.4297L248.383 30.1562L247.68 31.6094C247.023 32.9219 246.406 34.1016 245.828 35.1484C245.266 36.1797 244.727 37.0547 244.211 37.7734C243.695 38.4922 243.188 39.0469 242.688 39.4375C242.203 39.8125 241.719 40 241.234 40C240.719 40 240.281 39.8594 239.922 39.5781C239.578 39.2969 239.289 38.9141 239.055 38.4297C238.82 37.9297 238.641 37.3594 238.516 36.7188C238.391 36.0625 238.305 35.3672 238.258 34.6328C237.883 35.3828 237.469 36.0859 237.016 36.7422C236.562 37.3828 236.086 37.9453 235.586 38.4297C235.102 38.9141 234.594 39.2969 234.062 39.5781C233.531 39.8594 233 40 232.469 40C231.688 40 230.93 39.8359 230.195 39.5078C229.461 39.1797 228.805 38.6797 228.227 38.0078C227.664 37.3359 227.211 36.4922 226.867 35.4766C226.523 34.4453 226.352 33.2344 226.352 31.8438C226.352 30.2188 226.562 28.7344 226.984 27.3906C227.406 26.0312 227.977 24.8672 228.695 23.8984C229.414 22.9141 230.242 22.1562 231.18 21.625C232.117 21.0781 233.102 20.8047 234.133 20.8047C234.758 20.8047 235.336 20.9453 235.867 21.2266C236.398 21.5078 236.859 21.8516 237.25 22.2578C237.656 22.6484 237.992 23.0703 238.258 23.5234C238.523 23.9609 238.703 24.3359 238.797 24.6484L239.078 22.375C239.109 22.0781 239.25 21.8281 239.5 21.625C239.766 21.4219 240.055 21.2656 240.367 21.1562C240.68 21.0312 240.984 20.9453 241.281 20.8984C241.578 20.8359 241.789 20.8047 241.914 20.8047C242.102 20.8047 242.227 20.8359 242.289 20.8984C242.352 20.9609 242.383 21.0859 242.383 21.2734C242.383 21.5078 242.312 21.9844 242.172 22.7031C242.047 23.4062 241.906 24.3125 241.75 25.4219C241.609 26.5156 241.469 27.8047 241.328 29.2891C241.203 30.7734 241.141 32.4062 241.141 34.1875ZM238.562 28C238.562 27.2812 238.453 26.5781 238.234 25.8906C238.016 25.1875 237.719 24.5703 237.344 24.0391C236.969 23.4922 236.531 23.0547 236.031 22.7266C235.547 22.3984 235.031 22.2344 234.484 22.2344C233.812 22.2344 233.18 22.4297 232.586 22.8203C232.008 23.1953 231.5 23.7344 231.062 24.4375C230.641 25.125 230.305 25.9609 230.055 26.9453C229.805 27.9141 229.68 28.9844 229.68 30.1562C229.68 32.5 230.047 34.2891 230.781 35.5234C231.516 36.7422 232.492 37.3516 233.711 37.3516C234.242 37.3516 234.789 37.1406 235.352 36.7188C235.93 36.2812 236.453 35.6641 236.922 34.8672C237.406 34.0547 237.797 33.0703 238.094 31.9141C238.406 30.7578 238.562 29.4531 238.562 28ZM261.109 31.8438C261.109 32.9062 260.945 33.9297 260.617 34.9141C260.305 35.8828 259.836 36.75 259.211 37.5156C258.602 38.2656 257.836 38.8672 256.914 39.3203C256.008 39.7734 254.969 40 253.797 40C252.953 40 252.195 39.8672 251.523 39.6016C250.867 39.3203 250.305 38.9531 249.836 38.5C249.367 38.0312 249.008 37.5078 248.758 36.9297C248.508 36.3359 248.383 35.7266 248.383 35.1016C248.383 34.4766 248.5 33.8984 248.734 33.3672C248.984 32.8203 249.312 32.3594 249.719 31.9844C250.141 31.5938 250.617 31.2891 251.148 31.0703C251.68 30.8516 252.242 30.7422 252.836 30.7422C253.211 30.7422 253.602 30.7891 254.008 30.8828V31.5625C253.508 31.5625 253.016 31.6641 252.531 31.8672C252.062 32.0703 251.641 32.3516 251.266 32.7109C250.906 33.0547 250.617 33.4766 250.398 33.9766C250.18 34.4609 250.07 34.9844 250.07 35.5469C250.07 36.5781 250.422 37.4062 251.125 38.0312C251.844 38.6406 252.82 38.9453 254.055 38.9453C254.68 38.9453 255.25 38.8281 255.766 38.5938C256.281 38.3438 256.719 38.0078 257.078 37.5859C257.453 37.1484 257.734 36.6328 257.922 36.0391C258.125 35.4453 258.227 34.7969 258.227 34.0938C258.227 33.4219 258.094 32.7969 257.828 32.2188C257.562 31.6406 257.211 31.0938 256.773 30.5781C256.336 30.0625 255.836 29.5781 255.273 29.125C254.727 28.6719 254.164 28.2422 253.586 27.8359C253.023 27.4141 252.469 27.0078 251.922 26.6172C251.375 26.2266 250.898 25.8359 250.492 25.4453L248.148 30.6484L247.188 29.9219L249.578 24.6953C249 24.1484 248.57 23.6328 248.289 23.1484C248.023 22.6484 247.891 22.0547 247.891 21.3672C247.891 20.9922 247.953 20.6406 248.078 20.3125C248.219 19.9688 248.398 19.6797 248.617 19.4453C248.852 19.1953 249.117 19 249.414 18.8594C249.711 18.7188 250.023 18.6484 250.352 18.6484C250.945 18.6484 251.391 18.8203 251.688 19.1641C251.984 19.4922 252.133 19.9062 252.133 20.4062C252.133 20.6406 252.109 20.8906 252.062 21.1562C252.016 21.4062 251.953 21.6641 251.875 21.9297C251.812 22.1797 251.742 22.4141 251.664 22.6328C251.602 22.8516 251.547 23.0391 251.5 23.1953C251.969 23.5547 252.531 23.9062 253.188 24.25C253.844 24.5781 254.523 24.9219 255.227 25.2812C255.945 25.6406 256.656 26.0312 257.359 26.4531C258.062 26.875 258.688 27.3438 259.234 27.8594C259.797 28.375 260.25 28.9609 260.594 29.6172C260.938 30.2734 261.109 31.0156 261.109 31.8438ZM250.398 19.7031C250.18 19.7031 250 19.7812 249.859 19.9375C249.734 20.0781 249.672 20.2734 249.672 20.5234C249.672 20.8047 249.742 21.1172 249.883 21.4609C250.023 21.8047 250.273 22.1406 250.633 22.4688C250.789 22.1406 250.906 21.8203 250.984 21.5078C251.078 21.1953 251.125 20.8828 251.125 20.5703C251.125 20.3203 251.055 20.1172 250.914 19.9609C250.789 19.7891 250.617 19.7031 250.398 19.7031Z" fill="#ECDADA"/>
</g>
<defs>
<filter id="filter0_d" x="0.820312" y="0.648438" width="264.289" height="52.8828" filterUnits="userSpaceOnUse" color-interpolation-filters="sRGB">
<feFlood flood-opacity="0" result="BackgroundImageFix"/>
<feColorMatrix in="SourceAlpha" type="matrix" values="0 0 0 0 0 0 0 0 0 0 0 0 0 0 0 0 0 0 127 0" result="hardAlpha"/>
<feOffset dy="4"/>
<feGaussianBlur stdDeviation="2"/>
<feComposite in2="hardAlpha" operator="out"/>
<feColorMatrix type="matrix" values="0 0 0 0 0 0 0 0 0 0 0 0 0 0 0 0 0 0 0.87 0"/>
<feBlend mode="normal" in2="BackgroundImageFix" result="effect1_dropShadow"/>
<feBlend mode="normal" in="SourceGraphic" in2="effect1_dropShadow" result="shape"/>
</filter>
</defs>
</svg>
